<?xml version="1.0" standalone="no"?>
<!DOCTYPE svg PUBLIC "-//W3C//DTD SVG 20010904//EN"
 "http://www.w3.org/TR/2001/REC-SVG-20010904/DTD/svg10.dtd">
<svg version="1.0" xmlns="http://www.w3.org/2000/svg"
 width="1280.000000pt" height="1280.000000pt" viewBox="0 0 1280.000000 1280.000000"
 preserveAspectRatio="xMidYMid meet">

<g transform="translate(0.000000,1280.000000) scale(0.100000,-0.100000)"
fill="#000000" stroke="none">
<path d="M0 6400 l0 -6400 6400 0 6400 0 0 6400 0 6400 -6400 0 -6400 0 0
-6400z m7996 3568 c39 -40 108 -113 154 -163 46 -49 117 -125 157 -167 80 -82
87 -104 42 -125 l-26 -13 -6 -307 c-4 -170 -7 -551 -7 -848 0 -505 -6 -650
-29 -693 -5 -9 -12 -25 -15 -35 -5 -15 -14 -18 -48 -15 -39 3 -45 7 -61 42
-17 36 -19 37 -36 22 -15 -13 -16 -24 -10 -64 11 -69 11 -82 -6 -82 -8 0 -19
17 -25 41 -9 32 -15 40 -29 36 -10 -2 -26 2 -36 9 -15 12 -20 11 -31 -4 -12
-16 -13 -16 -19 1 -4 9 -13 17 -20 17 -7 0 -18 7 -25 15 -18 21 -27 19 -34
-10 -8 -32 -26 -32 -56 0 -15 16 -27 22 -34 16 -7 -6 -18 -4 -30 5 -32 23 -47
18 -36 -11 12 -31 2 -37 -61 -40 -31 -2 -53 2 -60 11 -16 20 -31 408 -25 649
8 274 -7 842 -23 858 -6 6 -11 23 -11 38 0 26 -3 27 -57 33 -32 3 -540 4
-1129 3 -975 -2 -1073 -4 -1096 -19 -31 -20 -29 27 -32 -738 -3 -561 -12 -839
-30 -868 -10 -16 -51 -15 -65 2 -12 14 -116 17 -138 3 -7 -5 -38 -3 -70 2 -31
6 -74 11 -96 11 -30 0 -46 6 -64 26 -19 21 -27 24 -38 14 -10 -8 -27 -10 -47
-5 -18 4 -58 8 -88 9 -83 3 -87 4 -95 29 -5 12 -11 429 -15 927 -7 957 -7 952
-52 964 -27 6 -22 18 25 67 23 25 67 72 97 104 168 181 287 301 310 312 19 9
380 12 1540 13 l1516 0 70 -72z m-510 -821 c3 -3 0 -12 -7 -19 -11 -11 -223
-12 -1117 -10 -606 2 -1100 7 -1097 11 2 5 93 9 202 11 1221 18 2006 21 2019
7z m48 -78 c-3 -5 -10 -7 -15 -3 -5 3 -7 10 -3 15 3 5 10 7 15 3 5 -3 7 -10 3
-15z m3 -241 c-2 -18 -4 -4 -4 32 0 36 2 50 4 33 2 -18 2 -48 0 -65z m0 -220
c-3 -7 -5 -2 -5 12 0 14 2 19 5 13 2 -7 2 -19 0 -25z m0 -75 c-3 -10 -5 -4 -5
12 0 17 2 24 5 18 2 -7 2 -21 0 -30z m833 -270 c0 -124 -3 -224 -6 -221 -3 4
-7 96 -9 206 -3 179 -1 242 11 242 2 0 4 -102 4 -227z m-833 65 c-3 -8 -6 -5
-6 6 -1 11 2 17 5 13 3 -3 4 -12 1 -19z m0 -75 c-3 -10 -5 -2 -5 17 0 19 2 27
5 18 2 -10 2 -26 0 -35z m10 -220 c-2 -16 -4 -5 -4 22 0 28 2 40 4 28 2 -13 2
-35 0 -50z m832 -3005 l1 -1947 -412 4 c-227 1 -425 3 -441 4 l-27 1 1 2073
c2 2127 8 2571 38 2553 8 -6 15 -432 15 -1067 1 -370 4 -459 15 -472 7 -9 18
-14 23 -11 6 4 153 8 327 11 174 2 327 7 341 10 14 3 32 7 40 7 24 2 31 79 25
276 -7 218 -7 590 0 675 3 33 10 195 15 360 6 165 14 323 18 350 12 87 19
-815 21 -2827z m-3913 2425 c19 -498 23 -594 31 -628 4 -16 5 -38 4 -49 -2
-11 2 -16 8 -12 7 5 11 -3 11 -18 0 -14 -4 -26 -8 -26 -20 0 -32 -90 -38 -297
l-7 -222 29 -11 c18 -7 81 -10 164 -9 326 8 1163 0 1422 -12 376 -18 623 -18
666 0 36 15 91 92 118 164 19 51 66 153 105 228 16 31 31 78 34 103 l4 47
-447 -6 c-246 -3 -465 -8 -487 -10 -204 -17 -247 -22 -266 -30 -10 -3 -20 -2
-23 3 -4 7 -18 7 -39 2 -17 -5 -63 -12 -102 -15 -106 -8 -155 -16 -155 -26 0
-5 -4 -9 -10 -9 -5 0 -10 6 -10 14 0 10 -13 14 -47 14 -27 0 -57 3 -69 7 -15
5 -21 2 -21 -9 0 -9 5 -16 11 -16 6 0 5 -4 -3 -9 -7 -5 -41 -6 -74 -3 -35 3
-58 1 -54 -4 3 -5 -30 -8 -76 -6 -45 2 -89 3 -97 4 -12 0 -125 16 -289 41 -14
2 -27 9 -29 16 -3 9 -7 9 -17 1 -10 -8 -19 -8 -34 -1 -18 10 -54 18 -98 23 -8
1 -14 20 -14 52 -1 29 -4 39 -6 24 -6 -39 -18 -35 -16 4 1 18 2 44 2 58 1 23
4 25 39 22 20 -2 57 2 82 8 25 7 69 11 98 11 31 -1 51 2 48 7 -11 19 39 38 92
36 29 -1 56 -4 58 -7 3 -2 21 -1 40 3 32 8 89 0 113 -14 6 -4 19 -3 28 2 10 6
26 6 40 1 18 -7 25 -5 30 8 4 10 1 19 -6 21 -9 3 -9 8 2 21 10 10 17 52 21
121 3 58 13 184 21 280 8 96 16 202 18 235 8 195 41 -364 35 -615 l-3 -155
-27 2 c-22 2 -29 -3 -34 -22 -9 -37 3 -70 30 -83 30 -14 38 -6 24 24 -8 18 -8
28 -1 35 8 8 283 11 929 10 505 -1 920 -4 923 -7 3 -2 -44 -102 -103 -222 -60
-119 -122 -248 -138 -287 -17 -38 -50 -113 -75 -165 -25 -52 -60 -127 -78
-166 -28 -59 -38 -72 -62 -77 -15 -3 -255 -6 -533 -6 -928 0 -837 2 -843 -23
-3 -13 -7 -634 -8 -1380 l-3 -1358 -432 0 c-267 0 -435 4 -439 10 -8 13 -8
4411 0 4574 6 124 11 154 22 142 3 -3 11 -166 19 -363z m254 -803 c0 -5 -5
-10 -11 -10 -5 0 -7 5 -4 10 3 6 8 10 11 10 2 0 4 -4 4 -10z m1858 -298 c4
-25 -13 -30 -22 -6 -9 25 -7 36 7 32 6 -3 13 -14 15 -26z"/>
<path d="M7784 7696 c-4 -11 -2 -21 7 -27 18 -11 24 5 10 28 -9 17 -10 17 -17
-1z"/>
<path d="M6983 9133 c42 -2 112 -2 155 0 42 1 7 3 -78 3 -85 0 -120 -2 -77 -3z"/>
<path d="M4860 6880 c0 -5 5 -10 10 -10 6 0 10 5 10 10 0 6 -4 10 -10 10 -5 0
-10 -4 -10 -10z"/>
<path d="M4580 6725 c0 -8 4 -15 8 -15 5 0 9 7 9 15 0 8 -4 15 -9 15 -4 0 -8
-7 -8 -15z"/>
<path d="M5298 6643 c7 -3 16 -2 19 1 4 3 -2 6 -13 5 -11 0 -14 -3 -6 -6z"/>
<path d="M4498 4015 c-3 -6 -6 -109 -7 -230 0 -121 -3 -308 -7 -415 l-6 -195
373 0 374 0 -1 25 c-1 14 -5 102 -8 195 -7 191 -15 265 -27 265 -5 0 -9 -4 -9
-10 0 -5 -7 -10 -15 -10 -9 0 -15 9 -15 25 0 20 -5 25 -25 25 -14 0 -25 -4
-25 -9 0 -5 -13 -16 -30 -25 -16 -8 -30 -10 -30 -5 0 5 -7 9 -15 9 -9 0 -18 6
-21 14 -3 8 -15 11 -30 8 -34 -6 -39 -19 -6 -17 15 2 19 0 10 -2 -10 -2 -18
-9 -18 -14 0 -17 -19 -9 -25 11 -3 11 -13 20 -21 20 -8 0 -14 7 -14 15 0 11
-7 14 -25 9 -32 -8 -84 4 -66 15 10 6 10 10 1 16 -7 4 -13 -1 -17 -13 -6 -23
-26 -34 -48 -26 -20 8 -19 22 3 26 14 3 13 5 -5 10 -16 4 -23 2 -23 -8 0 -10
-7 -13 -25 -8 -14 3 -31 2 -38 -4 -19 -15 -62 -8 -65 11 -6 29 -22 19 -22 -13
0 -20 -5 -30 -15 -30 -8 0 -15 9 -15 19 0 11 -5 23 -10 26 -6 4 -7 23 -4 46 4
25 3 39 -4 39 -7 0 -12 38 -14 108 -2 59 -6 102 -10 97z m49 -402 c-3 -10 -5
-2 -5 17 0 19 2 27 5 18 2 -10 2 -26 0 -35z"/>
<path d="M5138 3708 c9 -9 15 -9 24 0 9 9 7 12 -12 12 -19 0 -21 -3 -12 -12z"/>
<path d="M5045 3679 c-12 -19 5 -23 22 -6 16 16 16 17 1 17 -9 0 -20 -5 -23
-11z"/>
</g>
</svg>
